<?xml version="1.0" encoding="UTF-8"?>
<svg width="44px" height="43px" viewBox="0 0 44 43" version="1.1" xmlns="http://www.w3.org/2000/svg" xmlns:xlink="http://www.w3.org/1999/xlink">
    <!-- Generator: Sketch 52.5 (67469) - http://www.bohemiancoding.com/sketch -->
    <title>icon_银行流水导入 2</title>
    <desc>Created with Sketch.</desc>
    <defs>
        <rect id="path-1" x="283" y="249" width="120" height="120" rx="4"></rect>
        <filter x="-5.4%" y="-4.6%" width="110.8%" height="110.8%" filterUnits="objectBoundingBox" id="filter-2">
            <feOffset dx="0" dy="1" in="SourceAlpha" result="shadowOffsetOuter1"></feOffset>
            <feGaussianBlur stdDeviation="2" in="shadowOffsetOuter1" result="shadowBlurOuter1"></feGaussianBlur>
            <feColorMatrix values="0 0 0 0 0.894265519   0 0 0 0 0.894265519   0 0 0 0 0.894265519  0 0 0 1 0" type="matrix" in="shadowBlurOuter1"></feColorMatrix>
        </filter>
    </defs>
    <g id="财税APP" stroke="none" stroke-width="1" fill="none" fill-rule="evenodd">
        <g id="1-首页" transform="translate(-319.000000, -274.000000)">
            <rect fill="#F6FAFF" x="0" y="0" width="375" height="852"></rect>
            <g id="矩形">
                <use fill="black" fill-opacity="1" filter="url(#filter-2)" xlink:href="#path-1"></use>
                <use fill="#FFFFFF" fill-rule="evenodd" xlink:href="#path-1"></use>
            </g>
            <rect id="矩形" fill="#000000" opacity="0" x="316" y="266" width="53" height="53"></rect>
            <path d="M355.997339,291.854026 C355.996283,292.132698 355.884721,292.399537 355.687195,292.595838 C355.489669,292.79214 355.22236,292.901825 354.944074,292.900764 L354.942744,292.902095 L348.914397,292.904759 L348.914397,295.397753 L354.942744,295.308527 C355.220802,295.302424 355.489548,295.408969 355.688081,295.604017 C355.886613,295.799065 355.998123,296.066101 355.997339,296.344611 L355.997339,297.661689 C355.990693,298.24631 355.527483,298.723048 354.944074,298.745715 L348.915727,298.958792 L348.915727,301.754088 C348.915727,302.044404 348.796038,302.329394 348.583257,302.546466 C348.367018,302.765253 348.077583,302.896178 347.7707,302.914022 L346.309162,302.997921 C345.66018,303.03521 345.126898,302.566441 345.126898,301.947188 L345.126898,299.090633 L338.292644,299.331676 C337.579828,299.356978 337,298.856249 337,298.209029 L337,296.744129 C337,296.098241 337.581158,295.56555 338.292644,295.554896 L345.126898,295.453685 L345.126898,292.906091 L338.292644,292.908754 C337.579828,292.908754 337,292.388049 337,291.743493 L337,290.274597 C337.002092,289.959166 337.14029,289.66005 337.379016,289.454253 C337.622384,289.239845 337.949534,289.123985 338.291314,289.130643 L343.818296,289.241177 L339.246168,284.881101 C339.013299,284.665987 338.878707,284.364659 338.873801,284.04744 C338.873801,283.741142 339.008119,283.453489 339.246168,283.249735 L340.363267,282.288228 C340.609602,282.082212 340.9262,281.980034 341.246308,282.003238 C341.576118,282.023214 341.88997,282.161714 342.121369,282.389439 L346.335759,286.528448 C346.557,286.745167 346.850997,286.871477 347.160285,286.882687 C347.460465,286.895529 347.753682,286.789844 347.976832,286.588376 L351.833484,283.041985 C352.044372,282.849894 352.324383,282.752259 352.608804,282.771645 C352.898718,282.788957 353.175333,282.918135 353.377475,283.129879 L354.329669,284.127343 C354.744592,284.561486 354.744592,285.228682 354.329669,285.622873 L350.377265,289.373018 L354.946734,289.464907 C355.228458,289.471123 355.496628,289.587236 355.694127,289.788517 C355.89047,289.987962 356.000374,290.256883 355.999999,290.536947 L355.999999,291.854026 L355.997339,291.854026 Z" id="路径-2" fill="#FFFFFF"></path>
            <g id="icon_银行流水导入-2" transform="translate(319.000000, 273.000000)">
                <g id="icon_银行流水导入">
                    <rect id="矩形" fill="#000000" opacity="0" x="0" y="0" width="44" height="44"></rect>
                    <path d="M10.8576112,36.5456554 C10.8576112,37.9009573 10.1319748,39 9.2380432,39 L7.61956801,39 C6.72563641,39 6,37.9009573 6,36.5456554 L6,14.4543446 C6,13.0990427 6.72563641,12 7.61956801,12 L9.2380432,12 C10.1319748,12 10.8576112,13.0990427 10.8576112,14.4543446 L10.8576112,36.5456554 Z M40,36.5456554 C40,37.9009573 39.2754564,39 38.3815248,39 L36.7619568,39 C35.8680252,39 35.1434816,37.9009573 35.1434816,36.5456554 L35.1434816,14.4543446 C35.1434816,13.0990427 35.8680252,12 36.7619568,12 L38.3815248,12 C39.2754564,12 40,13.0990427 40,14.4543446 L40,36.5456554 Z M20.5717408,36.5456554 C20.5717408,37.9009573 19.8461044,39 18.9521728,39 L17.3336976,39 C16.439766,39 15.7141296,37.9009573 15.7141296,36.5456554 L15.7141296,14.4543446 C15.7141296,13.0990427 16.439766,12 17.3336976,12 L18.9521728,12 C19.8461044,12 20.5717408,13.0990427 20.5717408,14.4543446 L20.5717408,36.5456554 Z M30.2858704,36.5456554 C30.2858704,37.9009573 29.560234,39 28.6663024,39 L27.04892,39 C26.1549884,39 25.429352,37.9009573 25.429352,36.5456554 L25.429352,14.4543446 C25.429352,13.0990427 26.1549884,12 27.04892,12 L28.6663024,12 C29.560234,12 30.2858704,13.0990427 30.2858704,14.4543446 L30.2858704,36.5456554 Z" id="形状" fill="#7FA6FC" fill-rule="nonzero"></path>
                    <path d="M42,39 C42,40.1045695 40.8360451,41 39.400234,41 L5.5997659,41 C4.16395482,41 3,40.1045695 3,39 C3,37.8954305 4.16395482,37 5.5997659,37 L39.400234,37 C40.8358384,37 42,37.8955896 42,39 Z" id="路径" fill="#406CCF"></path>
                    <path d="M44,42 C44,43.1037792 43.1783,44 42.1663,44 L1.8337,44 C0.820975454,44 1.24022987e-16,43.1045695 0,42 C-1.24022987e-16,40.8954305 0.820975454,40 1.8337,40 L42.1674,40 C43.1783,40 44,40.8962208 44,42 Z" id="路径" fill="#7FA6FC"></path>
                    <path d="M41,13 C41,11.8955896 39.8530285,11 38.4403744,11 L7.399784,11 C5.98496985,11 5,11.8955896 5,13 C5,13.7515752 5.46332463,14.3978398 6.199892,14.739874 L6.199892,16 L10.99946,16 L10.99946,15 L15.799028,15 L15.799028,16 L20.598596,16 L20.598596,15 L25.398164,15 L25.398164,16 L30.197732,16 L30.197732,15 L34.9973,15 L34.9973,16 L39.796868,16 L39.796868,14.6885689 C40.5183152,14.3339334 41,13.7128713 41,13 Z" id="路径" fill="#406CCF"></path>
                    <path d="M3,11.3202 C3,10.0596 4.23396895,9.5558 4.23396895,9.5558 L22.3979919,1 L40.7364158,9.5558 C40.7364158,9.5558 42,9.8385 42,11.3279 L42,12 L3,12 L3,11.3202 Z" id="路径" fill="#7FA6FC"></path>
                    <path d="M41.9999995,11.9999998 C42.0002909,12.2652895 41.8719953,12.5197823 41.6433978,12.7073705 C41.4148004,12.8949587 41.1046721,13.0002387 40.7813866,12.9999996 L4.21861288,12.9999996 C3.54559157,12.9999996 3,12.5522844 3,11.9999998 C3,11.4477152 3.54559157,11 4.21861288,11 L40.7802898,11.0063006 C41.1029673,11.0043818 41.4132324,11.1082271 41.6422281,11.2947902 C41.8712239,11.4813534 42.000008,11.735202 41.9999995,11.9999998 Z" id="路径" fill="#CCD6DD"></path>
                    <path d="M14,25.5 C14,30.1944204 17.8055796,34 22.5,34 C27.1944204,34 31,30.1944204 31,25.5 C31,20.8055796 27.1944204,17 22.5,17 C17.8055796,17 14,20.8055796 14,25.5 Z" id="路径" fill="#F9C82D"></path>
                    <path d="M15,25 C15,28.8659932 18.1340068,32 22,32 C25.8659932,32 29,28.8659932 29,25 C29,21.1340068 25.8659932,18 22,18 C18.1340068,18 15,21.1340068 15,25 Z" id="路径" fill="#E8B321"></path>
                    <path d="M22.1913495,27.2732479 L20.5138408,27.2732479 C20.3695003,27.2681398 20.2357839,27.1922315 20.1525952,27.0681756 C20.0691108,26.9454273 20.0166097,26.8024385 20,26.652577 C20.0176471,26.4998636 20.0685121,26.3755113 20.1525952,26.2784292 C20.2366782,26.1813472 20.3570934,26.1257158 20.5138408,26.1137169 L22.1913495,26.1137169 L22.1913495,25.5377693 L20.5138408,25.5290428 C20.3570934,25.5170439 20.2366782,25.459231 20.1525952,25.355604 C20.0685121,25.2519771 20.0176471,25.1210799 20,24.9629125 C20.0118666,24.8243603 20.0652998,24.6933476 20.1525952,24.5887647 C20.2477453,24.4861282 20.3775105,24.4269609 20.5138408,24.4240524 L21.7657439,24.4240524 L20.6010381,22.2686119 C20.535543,22.1832298 20.4801227,22.0898319 20.4359862,21.9904554 C20.3832426,21.8754187 20.3593041,21.7481427 20.366436,21.6206708 C20.3880941,21.4684252 20.447928,21.3249814 20.5397924,21.2050723 C20.6269896,21.0981729 20.7889273,21.0294519 21.0266436,21 C21.1625426,21.0106816 21.2924745,21.0630197 21.400346,21.1505318 C21.5103806,21.2388874 21.600692,21.3348786 21.6702422,21.4385056 L22.9916955,23.9779111 L24.4439446,21.4199618 C24.5134948,21.3163349 24.6038062,21.2247068 24.7138408,21.1461685 C24.8253011,21.0663546 24.953547,21.016193 25.0875433,21 C25.1747405,21.0065449 25.2546713,21.0185438 25.3262976,21.0359967 C25.4709902,21.0680688 25.5931058,21.1693534 25.6564014,21.30979 C25.6992754,21.4082577 25.7272929,21.5131417 25.7394464,21.6206708 C25.7369076,21.8039671 25.6758581,21.9810563 25.56609,22.1235342 L24.2186851,24.4251432 L25.4965398,24.4251432 C25.6470588,24.4371421 25.766436,24.4916826 25.8525952,24.5898555 C25.9418081,24.6926522 25.9939593,24.8250241 26,24.9640033 C25.992599,25.1118183 25.9389571,25.2529291 25.8474048,25.3654213 C25.7557803,25.4755231 25.6252213,25.54136 25.4861592,25.5475866 L23.8252595,25.5563131 L23.8252595,26.1137169 L25.4944637,26.1137169 C25.6449827,26.1257158 25.7643599,26.1868012 25.850519,26.2958822 C25.9377163,26.4049632 25.9865052,26.5369512 25.9979239,26.6885738 C25.9910189,26.8342104 25.9392892,26.9735512 25.850519,27.0856286 C25.7602926,27.1940207 25.6314224,27.258374 25.4944637,27.2634306 L23.8252595,27.2547041 L23.8252595,28.2233433 C23.8024221,28.741478 23.532526,29 23.016609,29 C22.7612457,29 22.5629758,28.9356422 22.4207612,28.8080175 C22.2785467,28.6803927 22.2017301,28.4851377 22.1903114,28.2233433 L22.1913495,27.2732479 Z" id="路径" fill="#C18B10"></path>
                </g>
            </g>
        </g>
    </g>
</svg>