<?xml version="1.0" encoding="UTF-8"?>
<svg width="43px" height="45px" viewBox="0 0 43 45" version="1.1" xmlns="http://www.w3.org/2000/svg" xmlns:xlink="http://www.w3.org/1999/xlink">
    <!-- Generator: Sketch 52.5 (67469) - http://www.bohemiancoding.com/sketch -->
    <title>leasing cloud_社保和公积金 2</title>
    <desc>Created with Sketch.</desc>
    <defs>
        <rect id="path-1" x="147" y="249" width="120" height="120" rx="4"></rect>
        <filter x="-5.4%" y="-4.6%" width="110.8%" height="110.8%" filterUnits="objectBoundingBox" id="filter-2">
            <feOffset dx="0" dy="1" in="SourceAlpha" result="shadowOffsetOuter1"></feOffset>
            <feGaussianBlur stdDeviation="2" in="shadowOffsetOuter1" result="shadowBlurOuter1"></feGaussianBlur>
            <feColorMatrix values="0 0 0 0 0.894265519   0 0 0 0 0.894265519   0 0 0 0 0.894265519  0 0 0 1 0" type="matrix" in="shadowBlurOuter1"></feColorMatrix>
        </filter>
    </defs>
    <g id="财税APP" stroke="none" stroke-width="1" fill="none" fill-rule="evenodd">
        <g id="1-首页" transform="translate(-186.000000, -270.000000)">
            <rect fill="#F6FAFF" x="0" y="0" width="375" height="852"></rect>
            <rect id="矩形" fill="#000000" opacity="0" x="182" y="266" width="53" height="53"></rect>
            <path d="M219.848339,266 L192.281288,266 C191.070305,266 189.976983,266.23348 189,266.642071 C192.019443,267.921473 193.981818,270.890863 193.981424,274.179766 L193.981424,311.019223 C193.982927,315.086437 197.010488,318.51223 201.034475,319 C205.487085,318.724069 209.105491,314.672657 209.696441,310.1251 L228,310.1251 L228,274.179766 C228.000351,272.010249 227.14163,269.929489 225.612821,268.395409 C224.084012,266.861329 222.010401,265.999648 219.848339,266 Z" id="路径" fill="#FCC015"></path>
            <path d="M221.997339,291.854026 C221.996283,292.132698 221.884721,292.399537 221.687195,292.595838 C221.489669,292.79214 221.22236,292.901825 220.944074,292.900764 L220.942744,292.902095 L214.914397,292.904759 L214.914397,295.397753 L220.942744,295.308527 C221.220802,295.302424 221.489548,295.408969 221.688081,295.604017 C221.886613,295.799065 221.998123,296.066101 221.997339,296.344611 L221.997339,297.661689 C221.990693,298.24631 221.527483,298.723048 220.944074,298.745715 L214.915727,298.958792 L214.915727,301.754088 C214.915727,302.044404 214.796038,302.329394 214.583257,302.546466 C214.367018,302.765253 214.077583,302.896178 213.7707,302.914022 L212.309162,302.997921 C211.66018,303.03521 211.126898,302.566441 211.126898,301.947188 L211.126898,299.090633 L204.292644,299.331676 C203.579828,299.356978 203,298.856249 203,298.209029 L203,296.744129 C203,296.098241 203.581158,295.56555 204.292644,295.554896 L211.126898,295.453685 L211.126898,292.906091 L204.292644,292.908754 C203.579828,292.908754 203,292.388049 203,291.743493 L203,290.274597 C203.002092,289.959166 203.14029,289.66005 203.379016,289.454253 C203.622384,289.239845 203.949534,289.123985 204.291314,289.130643 L209.818296,289.241177 L205.246168,284.881101 C205.013299,284.665987 204.878707,284.364659 204.873801,284.04744 C204.873801,283.741142 205.008119,283.453489 205.246168,283.249735 L206.363267,282.288228 C206.609602,282.082212 206.9262,281.980034 207.246308,282.003238 C207.576118,282.023214 207.88997,282.161714 208.121369,282.389439 L212.335759,286.528448 C212.557,286.745167 212.850997,286.871477 213.160285,286.882687 C213.460465,286.895529 213.753682,286.789844 213.976832,286.588376 L217.833484,283.041985 C218.044372,282.849894 218.324383,282.752259 218.608804,282.771645 C218.898718,282.788957 219.175333,282.918135 219.377475,283.129879 L220.329669,284.127343 C220.744592,284.561486 220.744592,285.228682 220.329669,285.622873 L216.377265,289.373018 L220.946734,289.464907 C221.228458,289.471123 221.496628,289.587236 221.694127,289.788517 C221.89047,289.987962 222.000374,290.256883 221.999999,290.536947 L221.999999,291.854026 L221.997339,291.854026 Z" id="路径" fill="#FFFFFF"></path>
            <path d="M227.274079,310 L208.761081,310 C208.164707,314.577471 204.503559,318.658059 200,318.935886 C200.319582,318.974622 200.641837,319 200.972116,319 L219.315295,319 C219.574704,319 219.831439,318.986643 220.0855,318.9626 L224.754867,318.9626 C229.480395,318.9626 233.382231,314.741763 234,310 L227.274079,310 Z" id="路径" fill="#FFD469"></path>
            <g id="矩形">
                <use fill="black" fill-opacity="1" filter="url(#filter-2)" xlink:href="#path-1"></use>
                <use fill="#FFFFFF" fill-rule="evenodd" xlink:href="#path-1"></use>
            </g>
            <g id="leasing-cloud_社保和公积金-2" transform="translate(185.000000, 270.000000)">
                <g id="leasing-cloud_社保和公积金">
                    <rect id="矩形" fill="#000000" opacity="0" x="0" y="0" width="45" height="45"></rect>
                    <polygon id="路径" fill="#4EACEA" points="32.4872637 23 25.9883362 23 21.4836439 35.1879817 18 44.6162258 18 45 35 45 35 23"></polygon>
                    <path d="M15.1039374,19.812375 C15.2076097,19.841625 15.3090282,19.87875 15.4138274,19.90575 C15.4780591,19.922625 15.5366565,19.951875 15.6020151,19.9665 C16.3562022,20.1501475 17.1290772,20.2464076 17.9053427,20.253375 C17.9368951,20.253375 17.9673207,20.24775 18,20.246625 L18,0.0045 C17.9684476,0.0045 17.938022,0 17.9053427,0 C17.6574307,0 17.425295,0.055125 17.1807636,0.072 C17.0770913,0.079875 16.9756728,0.097875 16.8731274,0.109125 C11.7650139,0.631125 7.76236246,4.88475 7.76236246,10.125 C7.76236246,14.740875 10.8747846,18.594 15.1039374,19.812375 Z M17.9064696,44.87625 L16.283773,40.516875 L13.8350789,33.93675 L9.91468912,23.3955 L1,23.3955 L1,45 L18,45 L18,44.623125 L17.9064696,44.87625 Z" id="形状" fill="#4EACEA" fill-rule="nonzero"></path>
                    <path d="M28,10.0005558 C28,4.50619685 23.5298867,0.0511309954 18,0 L18,20 C18.7402653,19.9869338 19.476903,19.8941304 20.1969272,19.7232257 C24.6636761,18.6917134 28,14.7423998 28,10.0005558 Z" id="路径" fill="#4EACEA"></path>
                    <polygon id="路径" fill="#CCCCCC" points="23 24 18 24 18 34.6221085 18.1516726 35"></polygon>
                    <polygon id="路径" fill="#F8FBFF" points="13 24 18 35 18 24"></polygon>
                    <path d="M34.5012484,43 C32.1987767,41.8170335 27.6412957,38.9198349 27.2604938,35.9989995 C26.8156731,32.584042 27.0419467,27.5212606 27.1986825,25 L41.8005029,25 C41.9583425,27.5212606 42.1846161,32.584042 41.7386916,35.9989995 C41.3578897,38.9310905 36.80372,41.8215358 34.5012484,43 Z" id="路径" fill="#E8B321"></path>
                    <path d="M40.4513961,26.4459354 C40.5830951,29.1349136 40.670131,32.9897666 40.308245,35.7212447 C40.0826388,37.4212395 37.1257097,39.7150838 34.4986006,41.1543361 C31.9035574,39.7288675 28.9157076,37.409753 28.6912466,35.7212447 C28.3293607,32.9897666 28.4163965,29.1349136 28.5480955,26.4459354 L40.4513961,26.4459354 Z M43.6728685,23 L25.3266231,23 C25.3266231,23 24.6200293,31.1484885 25.2853956,36.1749595 C25.9519071,41.2014306 34.4997458,45 34.4997458,45 C34.4997458,45 43.0475845,41.2014306 43.714096,36.1749595 C44.3806076,31.1484885 43.6728685,23 43.6728685,23 Z" id="形状" fill="#F9C82D" fill-rule="nonzero"></path>
                </g>
            </g>
        </g>
    </g>
</svg>