<?xml version="1.0" encoding="UTF-8"?>
<svg width="41px" height="48px" viewBox="0 0 41 48" version="1.1" xmlns="http://www.w3.org/2000/svg" xmlns:xlink="http://www.w3.org/1999/xlink">
    <!-- Generator: Sketch 52.5 (67469) - http://www.bohemiancoding.com/sketch -->
    <title>分组 4</title>
    <desc>Created with Sketch.</desc>
    <defs>
        <rect id="path-1" x="11" y="249" width="120" height="120" rx="4"></rect>
        <filter x="-5.4%" y="-4.6%" width="110.8%" height="110.8%" filterUnits="objectBoundingBox" id="filter-2">
            <feOffset dx="0" dy="1" in="SourceAlpha" result="shadowOffsetOuter1"></feOffset>
            <feGaussianBlur stdDeviation="2" in="shadowOffsetOuter1" result="shadowBlurOuter1"></feGaussianBlur>
            <feColorMatrix values="0 0 0 0 0.894265519   0 0 0 0 0.894265519   0 0 0 0 0.894265519  0 0 0 1 0" type="matrix" in="shadowBlurOuter1"></feColorMatrix>
        </filter>
    </defs>
    <g id="财税APP" stroke="none" stroke-width="1" fill="none" fill-rule="evenodd">
        <g id="1-首页" transform="translate(-51.000000, -271.000000)">
            <rect fill="#F6FAFF" x="0" y="0" width="375" height="852"></rect>
            <rect id="矩形" fill="#000000" opacity="0" x="45" y="266" width="53" height="53"></rect>
            <path d="M82.8483389,266 L55.2812881,266 C54.0703051,266 52.976983,266.23348 52,266.642071 C55.0194429,267.921473 56.9818183,270.890863 56.9814237,274.179766 L56.9814237,311.019223 C56.9829272,315.086437 60.0104879,318.51223 64.0344745,319 C68.4870847,318.724069 72.1054915,314.672657 72.6964406,310.1251 L90.9999999,310.1251 L90.9999999,274.179766 C91.0003506,272.010249 90.14163,269.929489 88.612821,268.395409 C87.084012,266.861329 85.0104013,265.999648 82.8483389,266 Z" id="路径" fill="#FCC015"></path>
            <path d="M84.9973393,291.854026 C84.9962832,292.132698 84.8847207,292.399537 84.6871947,292.595838 C84.4896687,292.79214 84.2223599,292.901825 83.9440741,292.900764 L83.9427442,292.902095 L77.9143971,292.904759 L77.9143971,295.397753 L83.9427442,295.308527 C84.2208021,295.302424 84.4895485,295.408969 84.688081,295.604017 C84.8866135,295.799065 84.9981229,296.066101 84.9973393,296.344611 L84.9973393,297.661689 C84.9906927,298.24631 84.5274829,298.723048 83.9440741,298.745715 L77.915727,298.958792 L77.915727,301.754088 C77.915727,302.044404 77.7960378,302.329394 77.5832569,302.546466 C77.3670178,302.765253 77.0775826,302.896178 76.7707001,302.914022 L75.3091617,302.997921 C74.6601801,303.03521 74.1268982,302.566441 74.1268982,301.947188 L74.1268982,299.090633 L67.2926436,299.331676 C66.5798278,299.356978 66,298.856249 66,298.209029 L66,296.744129 C66,296.098241 66.5811577,295.56555 67.2926436,295.554896 L74.1268982,295.453685 L74.1268982,292.906091 L67.2926436,292.908754 C66.5798278,292.908754 66,292.388049 66,291.743493 L66,290.274597 C66.0020918,289.959166 66.1402897,289.66005 66.3790159,289.454253 C66.622384,289.239845 66.9495345,289.123985 67.2913137,289.130643 L72.818296,289.241177 L68.2461677,284.881101 C68.0132992,284.665987 67.8787068,284.364659 67.8738013,284.04744 C67.8738013,283.741142 68.0081192,283.453489 68.2461677,283.249735 L69.3632671,282.288228 C69.6096022,282.082212 69.9262,281.980034 70.2463076,282.003238 C70.5761179,282.023214 70.8899697,282.161714 71.1213688,282.389439 L75.3357593,286.528448 C75.5569999,286.745167 75.8509968,286.871477 76.1602851,286.882687 C76.4604653,286.895529 76.7536818,286.789844 76.9768315,286.588376 L80.8334842,283.041985 C81.0443719,282.849894 81.3243829,282.752259 81.6088044,282.771645 C81.8987183,282.788957 82.1753334,282.918135 82.3774752,283.129879 L83.3296695,284.127343 C83.7445921,284.561486 83.7445921,285.228682 83.3296695,285.622873 L79.3772654,289.373018 L83.9467339,289.464907 C84.2284585,289.471123 84.4966279,289.587236 84.6941266,289.788517 C84.8904703,289.987962 85.0003741,290.256883 84.999999,290.536947 L84.999999,291.854026 L84.9973393,291.854026 Z" id="路径" fill="#FFFFFF"></path>
            <path d="M55.9430789,273.755288 L55.9624838,273.755288 C55.9573092,273.693155 55.9366106,273.63631 55.9301423,273.575499 C55.8923398,273.246479 55.8344433,272.920197 55.7567917,272.598561 C55.7296248,272.482227 55.7102199,272.364571 55.6778784,272.249559 C55.5652308,271.847223 55.4225083,271.454322 55.2509702,271.074324 C55.2419146,271.054495 55.23674,271.033343 55.2276843,271.013514 C55.04101,270.616463 54.8234054,270.235389 54.5769728,269.873972 C54.5148771,269.784078 54.4424321,269.703437 54.377749,269.614865 C54.1906215,269.357986 53.9888944,269.112558 53.7736093,268.879847 C53.7386805,268.842832 53.7115136,268.797885 53.6765847,268.762192 L53.6571798,268.766157 C52.9331676,268.015457 52.073344,267.415628 51.1254851,267 C47.8732212,268.382785 46,271.884694 46,276 L56,276 L56,274.511457 C56,274.254994 55.9663648,274.006463 55.9430789,273.755288 Z" id="路径" fill="#D39C11"></path>
            <path d="M90.2740787,310 L71.7610807,310 C71.1647068,314.577471 67.5035592,318.658059 63,318.935886 C63.3195815,318.974622 63.6418374,319 63.9721163,319 L82.3152948,319 C82.5747041,319 82.831439,318.986643 83.0854997,318.9626 L87.7548669,318.9626 C92.4803949,318.9626 96.3822315,314.741763 97,310 L90.2740787,310 Z" id="路径" fill="#FFD469"></path>
            <g id="矩形">
                <use fill="black" fill-opacity="1" filter="url(#filter-2)" xlink:href="#path-1"></use>
                <use fill="#FFFFFF" fill-rule="evenodd" xlink:href="#path-1"></use>
            </g>
            <g id="分组-4" transform="translate(51.000000, 271.000000)">
                <path d="M28.4753898,9.75976606e-08 L3.02888135,9.75976606e-08 C1.91105084,9.75976606e-08 0.901830506,0.211453842 0,0.581497894 C2.78717807,1.74020241 4.59860148,4.42946085 4.59823728,7.40808979 L4.59823728,40.7721266 C4.59962508,44.4556415 7.39429653,47.5582458 11.1087457,48 C15.2188474,47.7501001 18.5589152,44.0808971 19.1044067,39.9623548 L35.9999999,39.9623548 L35.9999999,7.40808979 C36.0003236,5.44324455 35.2076585,3.55878275 33.7964501,2.16942734 C32.3852418,0.78007193 30.4711397,-0.000318637949 28.4753898,9.75976606e-08 Z" id="路径" fill="#78E6BA"></path>
                <path d="M29.7201216,23.5867109 C29.5433878,23.7643173 29.3042168,23.8635562 29.0552242,23.8625957 L23.66025,23.8662104 L23.66025,26.1217762 L29.0540343,26.0410482 C29.3028229,26.0355268 29.5432802,26.1319248 29.7209145,26.3083965 C29.8985489,26.4848682 29.9983205,26.7264724 29.9976194,26.9784574 L29.9976194,28.1700999 C29.9916724,28.6990425 29.5772215,29.1303769 29.0552242,29.1508854 L23.6614399,29.3436688 L23.6614399,31.8727461 C23.6614399,32.1354134 23.5543496,32.3932612 23.3639667,32.5896593 C23.1704896,32.7876096 22.9115213,32.9060654 22.6369422,32.9222107 L21.3292499,32.9981192 C20.7485822,33.0318563 20.2714352,32.6077328 20.2714352,32.047456 L20.2714352,29.4629535 L14.1565758,29.6810398 C13.5187933,29.7039328 13,29.2508918 13,28.6653122 L13,27.3399263 C13,26.7555516 13.5199832,26.2735931 14.1565758,26.263954 L20.2714352,26.1723818 L20.2714352,23.8674153 L14.1565758,23.8698251 C13.5187933,23.8698251 13,23.3987107 13,22.8155409 L13,21.4865403 C13.0018716,21.2011505 13.1255224,20.9305214 13.3391195,20.7443242 C13.5568699,20.5503359 13.8495835,20.4455099 14.155386,20.4515344 L19.1005806,20.5515408 L15.009729,16.6067104 C14.801373,16.4120838 14.6809482,16.1394536 14.676559,15.8524454 C14.676559,15.5753192 14.7967382,15.3150616 15.009729,15.1307125 L16.009239,14.2607774 C16.2296441,14.0743821 16.5129158,13.9819356 16.7993279,14.0029296 C17.0944213,14.021003 17.375236,14.1463123 17.5822774,14.3523495 L21.3530478,18.0971671 C21.5509999,18.2932467 21.8140498,18.4075266 22.0907814,18.4176695 C22.3593637,18.4292882 22.6217153,18.3336681 22.8213756,18.1513874 L26.2720648,14.9427487 C26.4607538,14.7689519 26.71129,14.6806154 26.9657724,14.6981547 C27.225169,14.7138184 27.4726667,14.8306933 27.6535304,15.0222718 L28.5054937,15.9247391 C28.8767403,16.3175353 28.8767403,16.9211883 28.5054937,17.2778376 L24.9691322,20.6708255 L29.057604,20.7539634 C29.3096734,20.7595872 29.5496145,20.8646422 29.7263238,21.0467531 C29.9019997,21.2272037 30.0003347,21.4705128 29.9999991,21.7239048 L29.9999991,22.9155473 C29.9966744,23.1676794 29.8968553,23.4091045 29.7201216,23.5867109 Z" id="路径" fill="#EDFF73"></path>
                <path d="M34.8675424,40 L17.9880442,40 C17.4442915,44.0688632 14.1061863,47.6960522 10,47.9430098 C10.2913832,47.9774414 10.5852047,48 10.8863413,48 L27.6110041,48 C27.8475243,48 28.0816062,47.988127 28.3132497,47.9667557 L32.5706139,47.9667557 C36.8791835,47.9667557 40.4367405,44.2149006 41,40 L34.8675424,40 Z" id="路径" fill="#63D6A8"></path>
            </g>
        </g>
    </g>
</svg>