<?xml version="1.0" encoding="UTF-8"?>
<svg width="29px" height="34px" viewBox="0 0 29 34" version="1.1" xmlns="http://www.w3.org/2000/svg" xmlns:xlink="http://www.w3.org/1999/xlink">
    <!-- Generator: Sketch 52.5 (67469) - http://www.bohemiancoding.com/sketch -->
    <title>合并形状</title>
    <desc>Created with Sketch.</desc>
    <defs>
        <rect id="path-1" x="10" y="366" width="355" height="74" rx="4"></rect>
        <filter x="-1.8%" y="-7.4%" width="103.7%" height="117.6%" filterUnits="objectBoundingBox" id="filter-2">
            <feOffset dx="0" dy="1" in="SourceAlpha" result="shadowOffsetOuter1"></feOffset>
            <feGaussianBlur stdDeviation="2" in="shadowOffsetOuter1" result="shadowBlurOuter1"></feGaussianBlur>
            <feColorMatrix values="0 0 0 0 0.935825893   0 0 0 0 0.935825893   0 0 0 0 0.935825893  0 0 0 1 0" type="matrix" in="shadowBlurOuter1"></feColorMatrix>
        </filter>
    </defs>
    <g id="财税APP" stroke="none" stroke-width="1" fill="none" fill-rule="evenodd">
        <g id="1.11.1-任务进度-综合业务" transform="translate(-38.000000, -386.000000)">
            <rect fill="#F6FAFF" x="0" y="0" width="375" height="667"></rect>
            <g id="矩形">
                <use fill="black" fill-opacity="1" filter="url(#filter-2)" xlink:href="#path-1"></use>
                <use fill="#FFFFFF" fill-rule="evenodd" xlink:href="#path-1"></use>
            </g>
            <path d="M40.979585,420 C40.5719545,420 40.1578536,419.89707 39.7761044,419.68457 C39.4364123,419.491992 39.1484828,419.229687 38.9187863,418.904297 C38.317046,418.041016 38,417.025 38,415.96582 L38,391.073438 C38,388.274414 40.2160866,386 42.9400937,386 L62.0566711,386 C64.7806783,386 67,388.274414 67,391.073438 L67,415.96582 C67,416.995117 66.6991299,417.987891 66.1297412,418.83457 C66.1103302,418.864453 66.0909192,418.891016 66.0715083,418.917578 C65.5538822,419.628125 64.7256805,420.016602 63.8554217,419.953516 C62.9722222,419.89043 62.192548,419.375781 61.7687416,418.578906 L60.2288041,415.683594 L58.5529897,418.671875 C58.1259482,419.452148 57.3300982,419.956836 56.4760152,419.990039 C56.4080768,419.993359 56.3401383,419.993359 56.2754351,419.990039 C55.4213521,419.956836 54.625502,419.452148 54.1984605,418.671875 L52.5,415.650391 L50.8209505,418.651953 C50.374498,419.46543 49.5430611,419.973437 48.6501562,419.976758 C48.6145694,419.976758 48.5789826,419.976758 48.5433958,419.973437 C47.6893128,419.940234 46.8934627,419.435547 46.4664212,418.651953 L44.8035475,415.683594 L43.2312584,418.625391 C42.7653949,419.501953 41.8854306,420 40.979585,420 Z M42.9400937,388.134961 C41.3613342,388.134961 40.0802097,389.453125 40.0802097,391.070117 L40.0802097,415.9625 C40.0802097,416.573437 40.264614,417.161133 40.6107764,417.65918 C40.6560687,417.722266 40.7078313,417.77207 40.7725346,417.808594 C40.9892905,417.931445 41.2804552,417.835156 41.4066265,417.596094 L43.7650602,413.190039 C43.9947568,412.758398 44.4670906,412.512695 44.9361892,412.572461 C44.9847166,412.579102 45.0364793,412.589062 45.0850067,412.602344 C45.3826417,412.682031 45.6446899,412.891211 45.7967425,413.170117 L48.2781124,417.606055 C48.3525212,417.745508 48.4851629,417.835156 48.6210397,417.838477 L48.6404507,417.838477 C48.786033,417.838477 48.9283802,417.745508 49.0060241,417.602734 L49.0124944,417.589453 L51.487394,413.166797 C51.6426818,412.887891 51.9014949,412.682031 52.1991299,412.599023 C52.3964748,412.545898 52.6035252,412.545898 52.797635,412.599023 C53.09527,412.678711 53.354083,412.88457 53.5093708,413.163477 L56.0101517,417.619336 C56.0845605,417.758789 56.2172021,417.845117 56.353079,417.851758 L56.3951361,417.851758 C56.5310129,417.845117 56.6636546,417.758789 56.7380634,417.619336 L56.7445337,417.606055 L59.2388443,413.163477 C59.3941321,412.88457 59.6529451,412.678711 59.9505801,412.599023 C59.9991075,412.585742 60.047635,412.575781 60.0961624,412.569141 C60.5684962,412.506055 61.04083,412.755078 61.2737617,413.186719 L63.5933735,417.549609 C63.7130745,417.77207 63.9168898,417.811914 64.001004,417.815234 C64.0948237,417.821875 64.2727577,417.808594 64.4021642,417.632617 C64.4053994,417.625977 64.4118697,417.619336 64.4151049,417.616016 C64.7450915,417.124609 64.9197903,416.553516 64.9197903,415.95918 L64.9197903,391.073438 C64.9197903,389.453125 63.6354306,388.138281 62.0599063,388.138281 L42.9400937,388.138281 L42.9400937,388.134961 Z M53.5559006,393.269579 L45.0559006,393.269579 C44.4751553,393.269579 44,392.761306 44,392.140084 L44,392.129495 C44,391.508273 44.4751553,391 45.0559006,391 L53.5559006,391 C54.136646,391 54.6118012,391.508273 54.6118012,392.129495 L54.6118012,392.140084 C54.6118012,392.761306 54.136646,393.269579 53.5559006,393.269579 Z M59.9440994,400.103022 L45.0559006,400.103022 C44.4751553,400.103022 44,399.59475 44,398.973527 L44,398.962938 C44,398.341716 44.4751553,397.833444 45.0559006,397.833444 L59.9440994,397.833444 C60.5248447,397.833444 61,398.341716 61,398.962938 L61,398.973527 C61,399.59475 60.5248447,400.103022 59.9440994,400.103022 Z M53.5559006,407 L45.0559006,407 C44.4751553,407 44,406.491727 44,405.870505 L44,405.859916 C44,405.238694 44.4751553,404.730421 45.0559006,404.730421 L53.5559006,404.730421 C54.136646,404.730421 54.6118012,405.238694 54.6118012,405.859916 L54.6118012,405.870505 C54.6118012,406.491727 54.136646,407 53.5559006,407 Z" id="合并形状" fill="#A3A3A3" fill-rule="nonzero"></path>
        </g>
    </g>
</svg>