<?xml version="1.0" encoding="UTF-8"?>
<svg width="14px" height="13px" viewBox="0 0 14 13" version="1.1" xmlns="http://www.w3.org/2000/svg" xmlns:xlink="http://www.w3.org/1999/xlink">
    <!-- Generator: Sketch 52.5 (67469) - http://www.bohemiancoding.com/sketch -->
    <title>形状</title>
    <desc>Created with Sketch.</desc>
    <defs>
        <rect id="path-1" x="0" y="0" width="375" height="44"></rect>
        <filter x="-1.7%" y="-12.5%" width="103.5%" height="129.5%" filterUnits="objectBoundingBox" id="filter-2">
            <feOffset dx="0" dy="1" in="SourceAlpha" result="shadowOffsetOuter1"></feOffset>
            <feGaussianBlur stdDeviation="2" in="shadowOffsetOuter1" result="shadowBlurOuter1"></feGaussianBlur>
            <feColorMatrix values="0 0 0 0 0.935825893   0 0 0 0 0.935825893   0 0 0 0 0.935825893  0 0 0 1 0" type="matrix" in="shadowBlurOuter1"></feColorMatrix>
        </filter>
        <rect id="path-3" x="0" y="0" width="375" height="44"></rect>
        <filter x="-1.7%" y="-12.5%" width="103.5%" height="129.5%" filterUnits="objectBoundingBox" id="filter-4">
            <feOffset dx="0" dy="1" in="SourceAlpha" result="shadowOffsetOuter1"></feOffset>
            <feGaussianBlur stdDeviation="2" in="shadowOffsetOuter1" result="shadowBlurOuter1"></feGaussianBlur>
            <feColorMatrix values="0 0 0 0 0.935825893   0 0 0 0 0.935825893   0 0 0 0 0.935825893  0 0 0 1 0" type="matrix" in="shadowBlurOuter1"></feColorMatrix>
        </filter>
    </defs>
    <g id="财税APP" stroke="none" stroke-width="1" fill="none" fill-rule="evenodd">
        <g id="2.0.1-设置" transform="translate(-37.000000, -136.000000)">
            <rect fill="#F6FAFF" x="0" y="0" width="375" height="667"></rect>
            <g id="分组" transform="translate(0.000000, 120.000000)">
                <g id="矩形">
                    <use fill="black" fill-opacity="1" filter="url(#filter-2)" xlink:href="#path-1"></use>
                    <use fill="#FFFFFF" fill-rule="evenodd" xlink:href="#path-1"></use>
                </g>
                <text id="地址管理" font-family="PingFangSC-Regular, PingFang SC" font-size="14" font-weight="normal" line-spacing="20" fill="#313131">
                    <tspan x="29" y="27">地址管理</tspan>
                </text>
                <g id="矩形">
                    <use fill="black" fill-opacity="1" filter="url(#filter-4)" xlink:href="#path-3"></use>
                    <use fill="#FFFFFF" fill-rule="evenodd" xlink:href="#path-3"></use>
                </g>
            </g>
            <g id="修改" transform="translate(37.000000, 136.000000)" fill="#BEBEBE" fill-rule="nonzero">
                <path d="M11.2540193,13 L2.25080386,13 C0.990353698,13 0,12.0466667 0,10.8333333 L0,2.16666667 C0,0.953333333 0.990353698,0 2.25080386,0 L9.18327974,0 C9.45337621,0 9.72347267,0.173333333 9.72347267,0.433333333 C9.72347267,0.693333333 9.54340836,0.866666667 9.2733119,0.866666667 L2.25080386,0.866666667 C1.53054662,0.866666667 0.990353698,1.47333333 0.990353698,2.16666667 L0.990353698,10.8333333 C0.990353698,11.5266667 1.62057878,12.1333333 2.34083601,12.1333333 L11.3440514,12.1333333 C12.0643087,12.1333333 12.6945338,11.5266667 12.6945338,10.8333333 L12.6945338,4.94 C12.6945338,4.68 12.8745981,4.50666667 13.1446945,4.50666667 C13.414791,4.50666667 13.5948553,4.68 13.5948553,4.94 L13.5948553,10.8333333 C13.5048232,12.0466667 12.5144695,13 11.2540193,13 Z M3.69131833,9.96666667 C3.60128617,9.96666667 3.42122186,9.88 3.33118971,9.79333333 C3.1511254,9.62 3.1511254,9.36 3.33118971,9.18666667 L13.2347267,0.52 C13.414791,0.346666667 13.6848875,0.346666667 13.8649518,0.52 C14.0450161,0.693333333 14.0450161,0.953333333 13.8649518,1.12666667 L3.96141479,9.79333333 C3.87138264,9.96666667 3.78135048,9.96666667 3.69131833,9.96666667 Z" id="形状"></path>
            </g>
        </g>
    </g>
</svg>